# xmcd
#
# Track frame offsets:
#	183
#	16595
#	31453
#	47018
#	66048
#	84048
#	99268
#	117030
#
# Disc length: 1744 seconds
#
# Revision: 0
# Processed by: cddbd v1.5.1PL2 Copyright (c) Steve Scherf et al.
# Submitted via: dBpowerAMP V4.0
#
DISCID=4c06ce08
DTITLE=Dr. Pepper - Dance Mix
DYEAR=1995
DGENRE=Dance
TTITLE0=PJ and Duncan Aka - Our Radio Rocks
TTITLE1=Rednex - Cotton Eye Joe
TTITLE2=Strike - U Sure Do (Strike's 7" Mix)
TTITLE3=Snap - Welcome To Tomorrow
TTITLE4=N-Trance - Set You Free (Original Radio Edit)
TTITLE5=Clock - Axel F (Radio Short Stab)
TTITLE6=The Grid - Texas Cowboys
TTITLE7=The Boo Radleys - Wake Up Boo
EXTD=
EXTT0=
EXTT1=
EXTT2=
EXTT3=
EXTT4=
EXTT5=
EXTT6=
EXTT7=
PLAYORDER=
